<svg width="258" height="220" viewBox="0 0 258 220" fill="none" xmlns="http://www.w3.org/2000/svg">
<g style="mix-blend-mode:screen" opacity="0.6">
<path d="M239.113 177.34H227.14C225.238 177.34 223.895 175.021 224.679 172.958C225.35 171.025 226.021 169.092 226.581 167.159C227.588 163.679 228.259 160.07 228.707 156.333L241.687 63.1517C242.918 54.1301 242.582 45.7528 240.792 37.891C239.001 30.1582 235.868 23.4564 231.392 17.9145C226.916 12.3726 221.434 7.99063 214.944 4.63972C208.342 1.67545 200.845 0 192.34 0C190.774 0 189.207 0.128881 187.641 0.257762H137.623L137.735 0.128881H43.8535H42.9584C36.0208 0.386643 30.314 6.95958 30.314 15.0791C30.314 23.3275 36.1327 30.0293 43.2941 30.0293H98.571H119.496C123.188 30.0293 126.433 33.5091 126.209 37.891C125.986 41.8864 123.188 44.9795 119.719 44.9795H98.6829H13.3058C6.92764 44.9795 1.33281 50.1347 0.213845 57.2232C-1.24081 66.5026 4.91351 74.8799 12.9701 74.8799H98.6829H124.643H131.021C134.714 74.8799 137.959 78.3597 137.735 82.7417C137.511 86.737 134.714 89.8301 131.245 89.8301H122.629H98.7948H81.7865H34.7899C28.4118 89.8301 22.817 94.9854 21.698 102.074C20.2433 111.482 26.3977 119.859 34.5661 119.859H98.6829H98.9067C103.047 119.859 106.18 123.984 105.509 128.623C104.949 132.232 102.264 134.81 99.0186 134.938H98.6829H87.9408H87.8289C81.227 134.938 75.6322 140.738 74.9608 148.471C74.1775 157.493 80.3319 164.968 88.1646 164.968H109.201C110.992 164.968 112.558 166.643 112.558 168.705C112.67 173.216 113.229 177.598 114.125 181.851C115.915 189.584 119.048 196.286 123.3 201.828C127.664 207.37 133.035 211.752 139.637 215.103C146.127 218.325 153.624 220 162.128 220H238.666C247.841 220 255.898 212.525 257.24 202.086C259.031 188.94 250.415 177.34 239.113 177.34ZM196.257 61.2185L182.717 158.524C181.934 164.323 180.032 168.319 177.122 170.51C174.213 172.701 171.304 173.861 168.506 173.861C165.709 173.861 163.135 172.701 160.786 170.51C158.436 168.319 157.764 164.323 158.548 158.524L172.087 61.0896C172.87 55.29 174.773 51.2947 177.682 49.1037C180.591 46.9127 183.501 45.7528 186.298 45.7528C189.095 45.7528 191.669 46.9127 194.019 49.1037C196.369 51.4235 197.04 55.4189 196.257 61.2185Z" fill="#16192C"/>
</g>
</svg>
