<svg width="210" height="53" viewBox="0 0 210 53" fill="none" xmlns="http://www.w3.org/2000/svg">
<rect width="210" height="52.7768" rx="3.85" fill="#CE1312"/>
<rect x="21" y="11" width="50.0265" height="31.1809" rx="1.71324" fill="white"/>
<path d="M40.0507 17.4148C40.0507 16.8466 40.6658 16.4915 41.1579 16.7756L56.5345 25.6533C57.0266 25.9374 57.0266 26.6476 56.5345 26.9317L41.1579 35.8094C40.6658 36.0935 40.0507 35.7384 40.0507 35.1702L40.0507 17.4148Z" fill="#CE1312"/>
<path d="M100.193 26.8013C98.6203 26.3493 97.4741 25.7953 96.7546 25.1395C96.0415 24.4772 95.6849 23.6622 95.6849 22.6944C95.6849 21.5992 96.121 20.695 96.9934 19.9819C97.8721 19.2623 99.0118 18.9026 100.413 18.9026C101.368 18.9026 102.218 19.0872 102.963 19.4566C103.714 19.8259 104.294 20.3353 104.701 20.9847C105.115 21.6342 105.322 22.3442 105.322 23.1146H103.479C103.479 22.2741 103.211 21.6151 102.676 21.1375C102.141 20.6536 101.387 20.4117 100.413 20.4117C99.5085 20.4117 98.8017 20.6122 98.2923 21.0134C97.7893 21.4082 97.5378 21.9589 97.5378 22.6657C97.5378 23.2324 97.7766 23.7132 98.2541 24.1079C98.738 24.4963 99.5563 24.8529 100.709 25.1777C101.868 25.5024 102.772 25.8622 103.421 26.2569C104.077 26.6453 104.561 27.1006 104.873 27.6227C105.191 28.1449 105.351 28.7593 105.351 29.4661C105.351 30.5931 104.911 31.4973 104.033 32.1786C103.154 32.8535 101.979 33.191 100.508 33.191C99.5531 33.191 98.6616 33.0096 97.8339 32.6466C97.0061 32.2773 96.3662 31.7743 95.9141 31.1375C95.4684 30.5008 95.2455 29.7781 95.2455 28.9694H97.0889C97.0889 29.8099 97.3977 30.4753 98.0153 30.9656C98.6394 31.4495 99.4703 31.6915 100.508 31.6915C101.476 31.6915 102.218 31.4941 102.734 31.0993C103.249 30.7046 103.507 30.1665 103.507 29.4852C103.507 28.8039 103.268 28.2786 102.791 27.9093C102.313 27.5336 101.447 27.1643 100.193 26.8013ZM113.813 31.978C113.125 32.7867 112.116 33.191 110.785 33.191C109.684 33.191 108.843 32.8727 108.264 32.2359C107.691 31.5928 107.401 30.6441 107.395 29.3897V22.6657H109.161V29.3419C109.161 30.9083 109.798 31.6915 111.072 31.6915C112.422 31.6915 113.319 31.1885 113.765 30.1824V22.6657H115.532V33H113.851L113.813 31.978ZM126.974 27.9475C126.974 29.5266 126.611 30.7969 125.885 31.7584C125.16 32.7135 124.185 33.191 122.963 33.191C121.657 33.191 120.648 32.7294 119.935 31.8061L119.849 33H118.225V18.3295H119.992V23.8023C120.706 22.9172 121.689 22.4747 122.944 22.4747C124.198 22.4747 125.182 22.9491 125.895 23.8978C126.614 24.8466 126.974 26.1455 126.974 27.7947V27.9475ZM125.207 27.7469C125.207 26.5435 124.975 25.6138 124.51 24.958C124.045 24.3021 123.377 23.9742 122.504 23.9742C121.339 23.9742 120.502 24.5154 119.992 25.5979V30.0678C120.534 31.1503 121.377 31.6915 122.523 31.6915C123.37 31.6915 124.029 31.3636 124.501 30.7077C124.972 30.0519 125.207 29.065 125.207 27.7469ZM135.226 30.2588C135.226 29.7813 135.045 29.412 134.682 29.1509C134.325 28.8835 133.698 28.6543 132.8 28.4632C131.909 28.2722 131.199 28.043 130.671 27.7756C130.148 27.5081 129.76 27.1898 129.505 26.8204C129.257 26.4511 129.133 26.0118 129.133 25.5024C129.133 24.6555 129.489 23.9392 130.203 23.3534C130.922 22.7676 131.839 22.4747 132.953 22.4747C134.125 22.4747 135.074 22.7771 135.799 23.3821C136.532 23.987 136.898 24.7606 136.898 25.703H135.121C135.121 25.219 134.914 24.802 134.501 24.4518C134.093 24.1016 133.577 23.9265 132.953 23.9265C132.31 23.9265 131.807 24.0665 131.444 24.3467C131.081 24.6269 130.9 24.993 130.9 25.4451C130.9 25.8717 131.068 26.1933 131.406 26.4097C131.743 26.6262 132.352 26.8332 133.23 27.0306C134.115 27.228 134.832 27.4636 135.379 27.7373C135.927 28.0111 136.331 28.3423 136.592 28.7307C136.86 29.1127 136.993 29.5807 136.993 30.1347C136.993 31.0579 136.624 31.7997 135.885 32.3601C135.147 32.914 134.189 33.191 133.011 33.191C132.183 33.191 131.451 33.0446 130.814 32.7517C130.177 32.4588 129.677 32.0513 129.314 31.5291C128.958 31.0006 128.779 30.4308 128.779 29.8195H130.546C130.578 30.4117 130.814 30.8828 131.253 31.233C131.699 31.5769 132.285 31.7488 133.011 31.7488C133.679 31.7488 134.214 31.6151 134.615 31.3477C135.023 31.0739 135.226 30.7109 135.226 30.2588ZM143.44 31.7488C144.071 31.7488 144.621 31.5578 145.093 31.1757C145.564 30.7937 145.825 30.3161 145.876 29.7431H147.547C147.515 30.3352 147.312 30.8988 146.936 31.4336C146.56 31.9685 146.057 32.3951 145.427 32.7135C144.803 33.0318 144.141 33.191 143.44 33.191C142.033 33.191 140.912 32.723 140.078 31.787C139.251 30.8446 138.837 29.5584 138.837 27.9284V27.6323C138.837 26.6262 139.021 25.7316 139.391 24.9484C139.76 24.1652 140.288 23.5572 140.976 23.1242C141.67 22.6912 142.488 22.4747 143.431 22.4747C144.59 22.4747 145.551 22.8217 146.315 23.5158C147.086 24.2098 147.496 25.1108 147.547 26.2187H145.876C145.825 25.5501 145.57 25.0026 145.112 24.5759C144.66 24.143 144.099 23.9265 143.431 23.9265C142.533 23.9265 141.836 24.2512 141.339 24.9007C140.849 25.5438 140.604 26.4766 140.604 27.6991V28.0334C140.604 29.2241 140.849 30.141 141.339 30.7841C141.829 31.4273 142.53 31.7488 143.44 31.7488ZM154.529 24.2512C154.262 24.2066 153.972 24.1843 153.66 24.1843C152.501 24.1843 151.715 24.6778 151.301 25.6648V33H149.534V22.6657H151.253L151.282 23.8596C151.861 22.9363 152.683 22.4747 153.746 22.4747C154.09 22.4747 154.351 22.5193 154.529 22.6084V24.2512ZM158.082 33H156.315V22.6657H158.082V33ZM156.172 19.9246C156.172 19.638 156.258 19.3961 156.43 19.1987C156.608 19.0013 156.869 18.9026 157.213 18.9026C157.557 18.9026 157.818 19.0013 157.996 19.1987C158.174 19.3961 158.264 19.638 158.264 19.9246C158.264 20.2111 158.174 20.4499 157.996 20.6409C157.818 20.8319 157.557 20.9274 157.213 20.9274C156.869 20.9274 156.608 20.8319 156.43 20.6409C156.258 20.4499 156.172 20.2111 156.172 19.9246ZM169.668 27.9475C169.668 29.5266 169.305 30.7969 168.579 31.7584C167.853 32.7135 166.879 33.191 165.656 33.191C164.351 33.191 163.342 32.7294 162.628 31.8061L162.543 33H160.919V18.3295H162.686V23.8023C163.399 22.9172 164.383 22.4747 165.637 22.4747C166.891 22.4747 167.875 22.9491 168.588 23.8978C169.308 24.8466 169.668 26.1455 169.668 27.7947V27.9475ZM167.901 27.7469C167.901 26.5435 167.668 25.6138 167.203 24.958C166.739 24.3021 166.07 23.9742 165.198 23.9742C164.032 23.9742 163.195 24.5154 162.686 25.5979V30.0678C163.227 31.1503 164.071 31.6915 165.217 31.6915C166.064 31.6915 166.723 31.3636 167.194 30.7077C167.665 30.0519 167.901 29.065 167.901 27.7469ZM176.191 33.191C174.79 33.191 173.65 32.7326 172.772 31.8157C171.893 30.8924 171.454 29.6603 171.454 28.1194V27.7947C171.454 26.7695 171.648 25.8558 172.036 25.0535C172.431 24.2448 172.979 23.6145 173.679 23.1624C174.386 22.7039 175.15 22.4747 175.971 22.4747C177.315 22.4747 178.359 22.9172 179.104 23.8023C179.849 24.6874 180.222 25.9545 180.222 27.6036V28.3391H173.221C173.246 29.3579 173.542 30.1824 174.109 30.8128C174.682 31.4368 175.408 31.7488 176.287 31.7488C176.911 31.7488 177.439 31.6215 177.872 31.3668C178.305 31.1121 178.684 30.7746 179.009 30.3543L180.088 31.1948C179.222 32.5256 177.923 33.191 176.191 33.191ZM175.971 23.9265C175.258 23.9265 174.66 24.1875 174.176 24.7097C173.692 25.2254 173.393 25.9513 173.278 26.8873H178.455V26.7536C178.404 25.8558 178.162 25.1617 177.729 24.6714C177.296 24.1748 176.71 23.9265 175.971 23.9265Z" fill="white"/>
</svg>
